<svg width="30" height="26" viewBox="0 0 30 26" fill="none" xmlns="http://www.w3.org/2000/svg">
<path d="M26.05 3.7625C25.4116 3.12376 24.6535 2.61706 23.8192 2.27136C22.9849 1.92565 22.0906 1.74772 21.1875 1.74772C20.2844 1.74772 19.3902 1.92565 18.5558 2.27136C17.7215 2.61706 16.9635 3.12376 16.325 3.7625L15 5.0875L13.675 3.7625C12.3854 2.47289 10.6363 1.74839 8.81253 1.74839C6.98874 1.74839 5.23964 2.47289 3.95003 3.7625C2.66041 5.05212 1.93591 6.80121 1.93591 8.625C1.93591 10.4488 2.66041 12.1979 3.95003 13.4875L15 24.5375L26.05 13.4875C26.6888 12.8491 27.1955 12.091 27.5412 11.2567C27.8869 10.4224 28.0648 9.52811 28.0648 8.625C28.0648 7.72189 27.8869 6.82763 27.5412 5.99331C27.1955 5.15898 26.6888 4.40095 26.05 3.7625Z" fill="#FF8244" stroke="#FF8244" stroke-width="2" stroke-linecap="round" stroke-linejoin="round"/>
</svg>
