<svg width="30" height="30" viewBox="0 0 30 30" fill="none" xmlns="http://www.w3.org/2000/svg">
<path d="M26.05 5.7625C25.4116 5.12376 24.6535 4.61706 23.8192 4.27136C22.9849 3.92565 22.0906 3.74772 21.1875 3.74772C20.2844 3.74772 19.3902 3.92565 18.5558 4.27136C17.7215 4.61706 16.9635 5.12376 16.325 5.7625L15 7.0875L13.675 5.7625C12.3854 4.47289 10.6363 3.74839 8.81253 3.74839C6.98874 3.74839 5.23964 4.47289 3.95003 5.7625C2.66041 7.05212 1.93591 8.80121 1.93591 10.625C1.93591 12.4488 2.66041 14.1979 3.95003 15.4875L15 26.5375L26.05 15.4875C26.6888 14.8491 27.1955 14.091 27.5412 13.2567C27.8869 12.4224 28.0648 11.5281 28.0648 10.625C28.0648 9.72189 27.8869 8.82763 27.5412 7.99331C27.1955 7.15898 26.6888 6.40095 26.05 5.7625Z" stroke="#FF8244" stroke-width="2" stroke-linecap="round" stroke-linejoin="round"/>
</svg>
